REM DIRINDEX 1\2\3,1\2\4,1\2\5,1\2\6
REM DIRNAME folder01,folder02,folder03,folder04,folder05,folder06
TITLE ""
FILE "126 126.mp3" MP3
  TRACK 01 AUDIO
    TITLE "0:"
    INDEX 01 00:00:00
  TRACK 02 AUDIO
    TITLE "3:cjc157_4707"
    INDEX 01 00:00:09
  TRACK 03 AUDIO
    TITLE "0:"
    INDEX 01 00:02:28
  TRACK 04 AUDIO
    TITLE "4:cjc157_4708"
    INDEX 01 00:02:69
  TRACK 05 AUDIO
    TITLE "0:"
    INDEX 01 00:03:68
  TRACK 06 AUDIO
    TITLE "5:cjc157_4709"
    INDEX 01 00:04:42
  TRACK 07 AUDIO
    TITLE "0:"
    INDEX 01 00:07:23
  TRACK 08 AUDIO
    TITLE "5:cjc157_4710"
    INDEX 01 00:07:68
  TRACK 09 AUDIO
    TITLE "0:"
    INDEX 01 00:10:70
  TRACK 10 AUDIO
    TITLE "3:cjc157_4711"
    INDEX 01 00:11:39
  TRACK 11 AUDIO
    TITLE "0:"
    INDEX 01 00:12:60
  TRACK 12 AUDIO
    TITLE "4:cjc157_4712"
    INDEX 01 00:13:28
  TRACK 13 AUDIO
    TITLE "0:"
    INDEX 01 00:14:47
  TRACK 14 AUDIO
    TITLE "5:cjc157_4713"
    INDEX 01 00:15:23
  TRACK 15 AUDIO
    TITLE "0:"
    INDEX 01 00:17:59
  TRACK 16 AUDIO
    TITLE "5:cjc157_4714"
    INDEX 01 00:18:31
  TRACK 17 AUDIO
    TITLE "0:"
    INDEX 01 00:20:39
  TRACK 18 AUDIO
    TITLE "3:cjc157_4715"
    INDEX 01 00:21:15
  TRACK 19 AUDIO
    TITLE "0:"
    INDEX 01 00:22:66
  TRACK 20 AUDIO
    TITLE "4:cjc157_4716"
    INDEX 01 00:23:38
  TRACK 21 AUDIO
    TITLE "0:"
    INDEX 01 00:24:61
  TRACK 22 AUDIO
    TITLE "5:cjc157_4717"
    INDEX 01 00:25:31
  TRACK 23 AUDIO
    TITLE "0:"
    INDEX 01 00:27:24
  TRACK 24 AUDIO
    TITLE "5:cjc157_4718"
    INDEX 01 00:28:04
  TRACK 25 AUDIO
    TITLE "0:"
    INDEX 01 00:29:60
  TRACK 26 AUDIO
    TITLE "3:cjc157_4719"
    INDEX 01 00:30:34
  TRACK 27 AUDIO
    TITLE "0:"
    INDEX 01 00:31:61
  TRACK 28 AUDIO
    TITLE "4:cjc157_4720"
    INDEX 01 00:32:31
  TRACK 29 AUDIO
    TITLE "0:"
    INDEX 01 00:33:56
  TRACK 30 AUDIO
    TITLE "5:cjc157_4721"
    INDEX 01 00:34:24
  TRACK 31 AUDIO
    TITLE "0:"
    INDEX 01 00:37:48
  TRACK 32 AUDIO
    TITLE "3:cjc157_4722"
    INDEX 01 00:38:18
  TRACK 33 AUDIO
    TITLE "0:"
    INDEX 01 00:39:51
  TRACK 34 AUDIO
    TITLE "4:cjc157_4723"
    INDEX 01 00:40:17
  TRACK 35 AUDIO
    TITLE "0:"
    INDEX 01 00:41:24
  TRACK 36 AUDIO
    TITLE "5:cjc157_4724"
    INDEX 01 00:41:73
  TRACK 37 AUDIO
    TITLE "0:"
    INDEX 01 00:44:14
  TRACK 38 AUDIO
    TITLE "5:cjc157_4725"
    INDEX 01 00:44:60
  TRACK 39 AUDIO
    TITLE "0:"
    INDEX 01 00:46:54
  TRACK 40 AUDIO
    TITLE "3:cjc157_4726"
    INDEX 01 00:47:27
  TRACK 41 AUDIO
    TITLE "0:"
    INDEX 01 00:48:40
  TRACK 42 AUDIO
    TITLE "4:cjc157_4727"
    INDEX 01 00:49:10
  TRACK 43 AUDIO
    TITLE "0:"
    INDEX 01 00:50:23
  TRACK 44 AUDIO
    TITLE "5:cjc157_4728"
    INDEX 01 00:50:70
  TRACK 45 AUDIO
    TITLE "0:"
    INDEX 01 00:53:15
  TRACK 46 AUDIO
    TITLE "5:cjc157_4729"
    INDEX 01 00:53:60
  TRACK 47 AUDIO
    TITLE "0:"
    INDEX 01 00:55:32
  TRACK 48 AUDIO
    TITLE "3:cjc157_4730"
    INDEX 01 00:56:06
  TRACK 49 AUDIO
    TITLE "0:"
    INDEX 01 00:57:13
  TRACK 50 AUDIO
    TITLE "4:cjc157_4731"
    INDEX 01 00:57:62
  TRACK 51 AUDIO
    TITLE "0:"
    INDEX 01 00:58:69
  TRACK 52 AUDIO
    TITLE "5:cjc157_4732"
    INDEX 01 00:59:43
  TRACK 53 AUDIO
    TITLE "0:"
    INDEX 01 01:01:60
  TRACK 54 AUDIO
    TITLE "3:cjc157_4733"
    INDEX 01 01:02:36
  TRACK 55 AUDIO
    TITLE "0:"
    INDEX 01 01:03:57
  TRACK 56 AUDIO
    TITLE "4:cjc157_4734"
    INDEX 01 01:04:27
  TRACK 57 AUDIO
    TITLE "0:"
    INDEX 01 01:05:28
  TRACK 58 AUDIO
    TITLE "5:cjc157_4735"
    INDEX 01 01:06:00
  TRACK 59 AUDIO
    TITLE "0:"
    INDEX 01 01:08:09
  TRACK 60 AUDIO
    TITLE "5:cjc157_4736"
    INDEX 01 01:08:58
  TRACK 61 AUDIO
    TITLE "0:"
    INDEX 01 01:10:59
  TRACK 62 AUDIO
    TITLE "3:cjc157_4737"
    INDEX 01 01:11:31
  TRACK 63 AUDIO
    TITLE "0:"
    INDEX 01 01:12:36
  TRACK 64 AUDIO
    TITLE "4:cjc157_4738"
    INDEX 01 01:13:06
  TRACK 65 AUDIO
    TITLE "0:"
    INDEX 01 01:14:12
  TRACK 66 AUDIO
    TITLE "5:cjc157_4739"
    INDEX 01 01:14:65
  TRACK 67 AUDIO
    TITLE "0:"
    INDEX 01 01:16:24
  TRACK 68 AUDIO
    TITLE "5:cjc157_4740"
    INDEX 01 01:16:65
  TRACK 69 AUDIO
    TITLE "0:"
    INDEX 01 01:18:41
  TRACK 70 AUDIO
    TITLE "3:cjc157_4741"
    INDEX 01 01:19:09
  TRACK 71 AUDIO
    TITLE "0:"
    INDEX 01 01:20:22
  TRACK 72 AUDIO
    TITLE "4:cjc157_4742"
    INDEX 01 01:20:69
  TRACK 73 AUDIO
    TITLE "0:"
    INDEX 01 01:21:74
  TRACK 74 AUDIO
    TITLE "5:cjc157_4743"
    INDEX 01 01:22:44
  TRACK 75 AUDIO
    TITLE "0:"
    INDEX 01 01:24:20
  TRACK 76 AUDIO
    TITLE "5:cjc157_4744"
    INDEX 01 01:24:65
  TRACK 77 AUDIO
    TITLE "0:"
    INDEX 01 01:27:57
